<svg xmlns="http://www.w3.org/2000/svg" viewBox="0 0 221.72 69.04"><defs><style>.cls-1{fill:#c4c4c9;}.cls-2{fill:#94191e;}.cls-3{fill:#87868b;}</style></defs><title>logo</title><g id="Capa_2" data-name="Capa 2"><g id="Capa_1-2" data-name="Capa 1"><path class="cls-1" d="M112.51,69q-33,0-66,0C26.93,69,10,57.51,3,39.46A41.19,41.19,0,0,1,.2,20.2,23.06,23.06,0,0,1,19.61.33,38.39,38.39,0,0,1,24.39,0Q111.14,0,197.9,0c10.17,0,18.64,5.63,22.22,14.75,1.77,4.51,1.85,9.18,1.35,13.91a43.73,43.73,0,0,1-8.12,21.48c-7.46,10.27-17.52,16.28-30,18.41A49.19,49.19,0,0,1,175,69Q143.77,69.08,112.51,69Zm-1.6-66.35q-43.92,0-87.84,0A20.19,20.19,0,0,0,3,19.31C2,25.07,2.93,30.71,4.67,36.21A43.07,43.07,0,0,0,46,66.32q65.52,0,131,0a34.52,34.52,0,0,0,6.43-.52c17-3.25,28.35-13.08,33.76-29.54a33.62,33.62,0,0,0,1.43-16.81c-1.9-10.1-10.12-16.74-20.41-16.74Z"/><path class="cls-2" d="M157.64,64a7.86,7.86,0,0,1,3-6.67c5.43-4.54,13.74-2.48,16.21,3.11a1.52,1.52,0,0,0,1.2.6,35.13,35.13,0,0,0,20.72-7.17c10.37-7.88,15.36-18.43,15-31.45C213.58,14.86,206.95,8.28,199.4,8q-.78,0-1.56,0H23.61c-6.13,0-10.83,2.53-13.84,7.86a15.12,15.12,0,0,0,13,22.47,18.55,18.55,0,0,0,4.84-.5,4.21,4.21,0,0,0,3.28-4.09,4,4,0,0,0-3-4.36c-2.09-.76-4.29-1.23-6.42-1.87A26.78,26.78,0,0,1,18,26.17a6.7,6.7,0,0,1-4.24-6.39,7.14,7.14,0,0,1,3.84-6.71c3.85-2.17,7.85-1.85,11.8-.33A34.64,34.64,0,0,1,33.51,15l-2,2.69a11.75,11.75,0,0,0-7.33-3,13.3,13.3,0,0,0-4.52.78,3.8,3.8,0,0,0-2.51,3.74,3.75,3.75,0,0,0,2.41,3.92c2,.79,4.18,1.3,6.26,2a37.54,37.54,0,0,1,4.27,1.53,6.59,6.59,0,0,1,4.2,6,7.56,7.56,0,0,1-4,7.27c-2.53,1.47-5.34,1.58-8.15,1.38A18.18,18.18,0,0,1,5.07,25.78C3.42,16.19,10.69,6.36,20.37,5.14a24.88,24.88,0,0,1,3.1-.22H198.31a18.11,18.11,0,0,1,18,13.92c1,4.28.63,8.61-.21,12.86a39.76,39.76,0,0,1-31.68,31.65,43.14,43.14,0,0,1-7.51.71c-6.08.1-12.16,0-18.24,0C158.34,64.07,158,64,157.64,64Z"/><path class="cls-3" d="M185.53,41.16V12.57c.11-.07.18-.15.24-.15,4.75,0,9.51,0,14.25.19a7.69,7.69,0,0,1,5.57,2.71,7,7,0,0,1-1.41,10.14c-.42.29-.85.55-1.32.84.84.39,1.61.7,2.33,1.1a7,7,0,0,1,.42,11.95,12.08,12.08,0,0,1-6.71,1.89c-4.24.06-8.47,0-12.71,0A5,5,0,0,1,185.53,41.16Zm3.33-2.94c3.78,0,7.45,0,11.12,0a6.24,6.24,0,0,0,1.74-.4c2.5-.78,3.72-2.4,3.68-4.81a4.32,4.32,0,0,0-3.88-4.34,43.8,43.8,0,0,0-6.3-.48c-2.1-.08-4.21,0-6.36,0Zm0-13.22c3.56,0,7.06.06,10.56,0a5.25,5.25,0,0,0,2.31-.92c1.77-1,2.19-2.74,2-4.66A4,4,0,0,0,201,16a7.8,7.8,0,0,0-2.56-.52c-3-.07-6,0-9-.05a3.17,3.17,0,0,0-.56.1Z"/><path class="cls-3" d="M61.4,12.14c5.41.23,10.76,0,16,.8s7.67,5.32,6.53,10.2c-.82,3.51-3.4,5.24-6.66,6.18-.22.06-.45.1-.86.19l8.81,11.74c-1.38,0-2.56.06-3.73,0-.34,0-.7-.48-.95-.81-2.41-3.19-4.77-6.41-7.2-9.57a2.14,2.14,0,0,0-1.44-.73c-2.35-.08-4.7,0-7.21,0V41.18H61.4Zm3.3,14.79c3.64,0,7.24.24,10.78-.07a5.57,5.57,0,0,0,5.35-5.6,5.13,5.13,0,0,0-4.76-5.5c-3.74-.4-7.54-.32-11.38-.44Z"/><path class="cls-3" d="M183.05,26.75a14.72,14.72,0,1,1-29.44.2,14.73,14.73,0,0,1,14.85-15.08A14.5,14.5,0,0,1,183.05,26.75Zm-3.46.75c.06-8.47-6.78-14.11-14.12-12.17a10.61,10.61,0,0,0-8,8.38c-1.05,4.53-.17,8.73,3.35,12a10.56,10.56,0,0,0,12.13,2C177.52,35.66,179.41,31.75,179.6,27.5Z"/><path class="cls-3" d="M40.28,15.38v9.76H55.77v3H40.3v10H57.87v3H37V12.45H57.65v2.93Z"/><path class="cls-3" d="M150.45,34.53l2,2.13c-5.14,6.23-15.25,6.85-21.23,1.3a15.5,15.5,0,0,1-.08-22.13c5.73-5.54,16-5.21,21.19.73l-2.2,2.37c-3.25-3.08-7-4.68-11.47-3.7a10.36,10.36,0,0,0-6.22,4,12.79,12.79,0,0,0,1.08,16.38C137,39,143.95,40.78,150.45,34.53Z"/><path class="cls-3" d="M98.55,37.09c1.41-3.38,2.72-6.53,4-9.69,1.91-4.61,3.83-9.2,5.7-13.83.36-.89.8-1.37,1.83-1.23a16.43,16.43,0,0,0,2.15,0,7,7,0,0,1-.23.82c-3.89,9.13-7.81,18.26-11.66,27.41-.39.92-1,.91-1.7.86s-1.53.29-2-.8c-3.92-9.3-7.9-18.58-11.85-27.86a3.34,3.34,0,0,1-.09-.42,31.9,31.9,0,0,1,3.29,0c.27,0,.56.6.71,1q4.72,11.38,9.41,22.78C98.24,36.4,98.34,36.61,98.55,37.09Z"/><path class="cls-3" d="M108.58,23.6c2.16-.42,2.17-.42,3.24,1.17l5.06,7.51c1.74-2.56,3.49-4.94,5-7.45a2.57,2.57,0,0,1,3.25-1.29c-.16.28-.3.54-.46.78-2.08,3-4.18,6-6.23,9.08a3.51,3.51,0,0,0-.54,1.75c-.07,2,0,4,0,6h-2c0-1.92.06-3.82,0-5.71a4.55,4.55,0,0,0-.67-2.19c-1.91-2.9-3.9-5.74-5.86-8.61C109,24.35,108.83,24,108.58,23.6Z"/><path class="cls-2" d="M53.49,53.92a4.26,4.26,0,0,1-4.28,4.37,4.33,4.33,0,0,1-4.31-4.37,4.38,4.38,0,0,1,4.33-4.37A4.23,4.23,0,0,1,53.49,53.92ZM46,54a3.24,3.24,0,1,0,6.47,0,3.34,3.34,0,0,0-3.27-3.44A3.25,3.25,0,0,0,46,54Z"/><path class="cls-2" d="M56.41,51.7c0,1.78,0,3.56,0,5.34,0,.37-.33.72-.5,1.08-.16-.34-.45-.68-.45-1,0-2.39,0-4.79,0-7.57a5.22,5.22,0,0,1,1.41.8c1.54,1.88,3,3.8,4.7,5.93V49.92l.33-.26c.24.23.68.45.69.68,0,2.55,0,5.11,0,8.06a7.3,7.3,0,0,1-1.31-1c-1.55-1.92-3.07-3.87-4.6-5.81Z"/><path class="cls-2" d="M118.29,51.73V58l-.26.25c-.23-.24-.66-.47-.67-.71,0-2.55,0-5.11,0-8a5.76,5.76,0,0,1,1.39.84c1.42,1.73,2.78,3.51,4.17,5.26.13.17.3.32.62.67V49.84l.36-.2c.21.27.59.53.59.8,0,2.51,0,5,0,7.95a6.78,6.78,0,0,1-1.3-.91c-1.57-1.94-3.11-3.91-4.66-5.87Z"/><path class="cls-2" d="M142.49,49.72c1.3,0,2.45,0,3.6,0,1.73,0,2.8.79,3.06,2.11S148.73,54,147,54.78l2.35,3.2-.28.34a9,9,0,0,1-1.31-.86,4.45,4.45,0,0,1-.93-1.24c-.7-1.4-1.83-1.59-3.36-1.21,0,.77,0,1.6,0,2.42,0,.25-.34.47-.52.7-.15-.23-.42-.45-.42-.68C142.48,54.94,142.49,52.43,142.49,49.72Zm1,1v3.16c1.11,0,2.17.08,3.22,0a1.44,1.44,0,0,0,1.35-1.65,1.41,1.41,0,0,0-1.43-1.46C145.65,50.65,144.63,50.71,143.53,50.71Z"/><path class="cls-2" d="M110.46,57.21c1.5,0,2.9,0,4.29,0,.26,0,.52.29.78.45-.27.15-.54.43-.81.43-1.71,0-3.43,0-5.25,0V49.81h5.79c.1.81.1.84-.64.85-1.36,0-2.71,0-4.16,0v2.72c1.24,0,2.47,0,3.69,0,.29,0,.56.34.85.53l-.18.37h-4.35Z"/><path class="cls-2" d="M134.57,49.79h5.94l.17.35c-.3.17-.59.49-.89.5-1.35.06-2.71,0-4.16,0v2.72c1.09,0,2.16,0,3.23,0a4.3,4.3,0,0,1,1.23.49,4.34,4.34,0,0,1-1.17.41c-1.07.06-2.14,0-3.3,0v2.87h4.9l.19.28c-.2.22-.39.61-.59.62-1.82,0-3.65,0-5.54,0Z"/><path class="cls-2" d="M70.85,58c1.19-2.64,2.35-5.28,3.58-7.9.33-.71,1-.68,1.32.06,1.2,2.59,2.36,5.21,3.53,7.81l-.29.31c-.34-.28-.89-.49-1-.84A1.83,1.83,0,0,0,75.64,56a2.92,2.92,0,0,1-.84,0c-1.32-.15-2.41,0-2.76,1.61-.06.29-.6.47-.92.7Zm4.21-7.11L73.25,55h3.62Z"/><path class="cls-2" d="M107.62,51.28c-.37,0-.82.09-1.11-.08-1.51-.9-2.85-.94-4,0a3.5,3.5,0,0,0-1.05,4,3.25,3.25,0,0,0,5,1.49,1.66,1.66,0,0,1,1.13-.12,4,4,0,0,1-5.91.75,4.5,4.5,0,0,1-.49-6.24c1.6-1.92,4.22-2,6.39-.25Z"/><path class="cls-2" d="M43.83,56.83a4.29,4.29,0,0,1-6.18.26,4.52,4.52,0,0,1,0-6.26,4.33,4.33,0,0,1,6.25.12l-.61.66-.65-.43a3.16,3.16,0,0,0-4.32.39,3.63,3.63,0,0,0,0,4.72,3.36,3.36,0,0,0,4.36.41,4,4,0,0,1,1.11-.31Z"/><path class="cls-2" d="M87.56,51,87,51.6l-.75-.5a3.17,3.17,0,0,0-4.31.57A3.69,3.69,0,0,0,82,56.31a3.28,3.28,0,0,0,4.26.39c.46-.3.9-.82,1.26.08a4.26,4.26,0,0,1-6.08.41,4.53,4.53,0,0,1-.15-6.36A4.31,4.31,0,0,1,87.56,51Z"/><path class="cls-2" d="M91.41,50.68c-.79,0-1.46,0-2.12,0-.23,0-.43-.31-.64-.48.19-.15.37-.43.56-.43,2,0,4,0,6,0,0,.84,0,.84-2.68,1,0,1.67,0,3.37,0,5.06,0,.52,0,1,0,1.56,0,.74-.29.93-1.07.63Z"/><path class="cls-2" d="M130,50.67c0,2.26,0,4.36,0,6.47,0,.33-.32.66-.49,1-.17-.33-.49-.65-.5-1,0-2.11,0-4.21,0-6.22-.88-.72-2.29.44-3-1.2,2.25,0,4.28,0,6.3,0,.17,0,.33.32.5.49-.2.15-.39.4-.59.42C131.53,50.71,130.86,50.67,130,50.67Z"/><path class="cls-2" d="M67.05,50.8c-1-.11-1.86-.2-2.7-.33a4.72,4.72,0,0,1,0-.74c2,0,4,0,6,0,.18,0,.35.3.53.46-.19.16-.36.43-.56.45-.7.05-1.41,0-2.25,0,0,2.22,0,4.32,0,6.43a3.08,3.08,0,0,1-.44,1c-.19-.35-.53-.7-.54-1.05C67,55,67.05,52.94,67.05,50.8Z"/></g></g></svg>